<mxfile host="app.diagrams.net" agent="Mozilla/5.0 (Windows NT 10.0; Win64; x64) AppleWebKit/537.36 (KHTML, like Gecko) Chrome/135.0.0.0 Safari/537.36 Edg/135.0.0.0" version="26.3.0">
  <diagram id="89Z47XQNOyBS4OzEdCp8" name="第 1 页">
    <mxGraphModel dx="778" dy="460" grid="1" gridSize="10" guides="1" tooltips="1" connect="1" arrows="1" fold="1" page="1" pageScale="1" pageWidth="3300" pageHeight="4681" math="0" shadow="0">
      <root>
        <mxCell id="0" />
        <mxCell id="1" parent="0" />
        <mxCell id="xaHcEthnXSobxIa-HRYK-2" value="&lt;font style=&quot;font-size: 16px;&quot;&gt;1.1&lt;/font&gt;&lt;div&gt;&lt;font style=&quot;font-size: 16px;&quot;&gt;車機管理&lt;/font&gt;&lt;/div&gt;" style="ellipse;whiteSpace=wrap;html=1;" vertex="1" parent="1">
          <mxGeometry x="440" y="280" width="120" height="80" as="geometry" />
        </mxCell>
        <mxCell id="xaHcEthnXSobxIa-HRYK-4" value="" style="edgeStyle=none;orthogonalLoop=1;jettySize=auto;html=1;rounded=0;exitX=1;exitY=0;exitDx=0;exitDy=0;" edge="1" parent="1" source="xaHcEthnXSobxIa-HRYK-2">
          <mxGeometry width="100" relative="1" as="geometry">
            <mxPoint x="550" y="290" as="sourcePoint" />
            <mxPoint x="600" y="240" as="targetPoint" />
            <Array as="points" />
          </mxGeometry>
        </mxCell>
        <mxCell id="xaHcEthnXSobxIa-HRYK-7" value="" style="line;strokeWidth=2;html=1;" vertex="1" parent="1">
          <mxGeometry x="600" y="220" width="160" height="10" as="geometry" />
        </mxCell>
        <mxCell id="xaHcEthnXSobxIa-HRYK-9" value="" style="line;strokeWidth=2;html=1;" vertex="1" parent="1">
          <mxGeometry x="600" y="240" width="160" height="10" as="geometry" />
        </mxCell>
        <mxCell id="xaHcEthnXSobxIa-HRYK-10" value="&lt;font style=&quot;font-size: 16px;&quot;&gt;車機端車機資料表&lt;/font&gt;" style="text;html=1;align=center;verticalAlign=middle;resizable=0;points=[];autosize=1;strokeColor=none;fillColor=none;" vertex="1" parent="1">
          <mxGeometry x="600" y="220" width="150" height="30" as="geometry" />
        </mxCell>
        <mxCell id="xaHcEthnXSobxIa-HRYK-11" value="" style="edgeStyle=none;orthogonalLoop=1;jettySize=auto;html=1;rounded=0;exitX=1;exitY=1;exitDx=0;exitDy=0;" edge="1" parent="1" source="xaHcEthnXSobxIa-HRYK-2">
          <mxGeometry width="100" relative="1" as="geometry">
            <mxPoint x="500" y="350" as="sourcePoint" />
            <mxPoint x="600" y="400" as="targetPoint" />
            <Array as="points" />
          </mxGeometry>
        </mxCell>
        <mxCell id="xaHcEthnXSobxIa-HRYK-12" value="" style="line;strokeWidth=2;html=1;" vertex="1" parent="1">
          <mxGeometry x="600" y="390" width="160" height="10" as="geometry" />
        </mxCell>
        <mxCell id="xaHcEthnXSobxIa-HRYK-13" value="" style="line;strokeWidth=2;html=1;" vertex="1" parent="1">
          <mxGeometry x="600" y="410" width="160" height="10" as="geometry" />
        </mxCell>
        <mxCell id="xaHcEthnXSobxIa-HRYK-14" value="&lt;font style=&quot;font-size: 16px;&quot;&gt;伺服器端&lt;/font&gt;" style="text;html=1;align=center;verticalAlign=middle;resizable=0;points=[];autosize=1;strokeColor=none;fillColor=none;" vertex="1" parent="1">
          <mxGeometry x="630" y="390" width="90" height="30" as="geometry" />
        </mxCell>
        <mxCell id="xaHcEthnXSobxIa-HRYK-15" value="&lt;font style=&quot;font-size: 16px;&quot;&gt;1.2&lt;/font&gt;&lt;div&gt;&lt;font style=&quot;font-size: 16px;&quot;&gt;車輛管理&lt;/font&gt;&lt;/div&gt;" style="ellipse;whiteSpace=wrap;html=1;" vertex="1" parent="1">
          <mxGeometry x="240" y="280" width="120" height="80" as="geometry" />
        </mxCell>
        <mxCell id="xaHcEthnXSobxIa-HRYK-16" value="&lt;font style=&quot;font-size: 16px;&quot;&gt;設備人員&lt;/font&gt;" style="rounded=0;whiteSpace=wrap;html=1;" vertex="1" parent="1">
          <mxGeometry x="80" y="220" width="120" height="60" as="geometry" />
        </mxCell>
        <mxCell id="xaHcEthnXSobxIa-HRYK-17" value="" style="edgeStyle=none;orthogonalLoop=1;jettySize=auto;html=1;rounded=0;exitX=0.5;exitY=1;exitDx=0;exitDy=0;entryX=0;entryY=0.5;entryDx=0;entryDy=0;" edge="1" parent="1" source="xaHcEthnXSobxIa-HRYK-16" target="xaHcEthnXSobxIa-HRYK-15">
          <mxGeometry width="100" relative="1" as="geometry">
            <mxPoint x="120" y="290" as="sourcePoint" />
            <mxPoint x="220" y="290" as="targetPoint" />
            <Array as="points" />
          </mxGeometry>
        </mxCell>
        <mxCell id="xaHcEthnXSobxIa-HRYK-18" value="&lt;font style=&quot;font-size: 16px;&quot;&gt;車輛資料&lt;/font&gt;" style="text;html=1;align=center;verticalAlign=middle;resizable=0;points=[];autosize=1;strokeColor=none;fillColor=none;" vertex="1" parent="1">
          <mxGeometry x="115" y="298" width="90" height="30" as="geometry" />
        </mxCell>
        <mxCell id="xaHcEthnXSobxIa-HRYK-21" value="" style="edgeStyle=none;orthogonalLoop=1;jettySize=auto;html=1;rounded=0;exitX=0.5;exitY=1;exitDx=0;exitDy=0;" edge="1" parent="1" source="xaHcEthnXSobxIa-HRYK-15">
          <mxGeometry width="100" relative="1" as="geometry">
            <mxPoint x="250" y="370" as="sourcePoint" />
            <mxPoint x="300" y="440" as="targetPoint" />
            <Array as="points" />
          </mxGeometry>
        </mxCell>
        <mxCell id="xaHcEthnXSobxIa-HRYK-22" value="" style="line;strokeWidth=2;html=1;" vertex="1" parent="1">
          <mxGeometry x="240" y="440" width="120" height="10" as="geometry" />
        </mxCell>
        <mxCell id="xaHcEthnXSobxIa-HRYK-23" value="" style="line;strokeWidth=2;html=1;" vertex="1" parent="1">
          <mxGeometry x="240" y="460" width="120" height="10" as="geometry" />
        </mxCell>
        <mxCell id="xaHcEthnXSobxIa-HRYK-24" value="&lt;font style=&quot;font-size: 16px;&quot;&gt;車輛資料表&lt;/font&gt;" style="text;html=1;align=center;verticalAlign=middle;resizable=0;points=[];autosize=1;strokeColor=none;fillColor=none;" vertex="1" parent="1">
          <mxGeometry x="250" y="440" width="100" height="30" as="geometry" />
        </mxCell>
        <mxCell id="xaHcEthnXSobxIa-HRYK-27" value="" style="edgeStyle=none;orthogonalLoop=1;jettySize=auto;html=1;rounded=0;entryX=0.311;entryY=1.025;entryDx=0;entryDy=0;entryPerimeter=0;" edge="1" parent="1" target="xaHcEthnXSobxIa-HRYK-2">
          <mxGeometry width="100" relative="1" as="geometry">
            <mxPoint x="360" y="450" as="sourcePoint" />
            <mxPoint x="420" y="450" as="targetPoint" />
            <Array as="points" />
          </mxGeometry>
        </mxCell>
        <mxCell id="xaHcEthnXSobxIa-HRYK-28" value="&lt;font style=&quot;font-size: 16px;&quot;&gt;車&lt;/font&gt;&lt;div&gt;&lt;font style=&quot;font-size: 16px;&quot;&gt;輛&lt;/font&gt;&lt;/div&gt;&lt;div&gt;&lt;font style=&quot;font-size: 16px;&quot;&gt;資&lt;/font&gt;&lt;/div&gt;&lt;div&gt;&lt;font style=&quot;font-size: 16px;&quot;&gt;料&lt;/font&gt;&lt;/div&gt;" style="text;html=1;align=center;verticalAlign=middle;resizable=0;points=[];autosize=1;strokeColor=none;fillColor=none;rotation=0;" vertex="1" parent="1">
          <mxGeometry x="440" y="380" width="40" height="90" as="geometry" />
        </mxCell>
        <mxCell id="xaHcEthnXSobxIa-HRYK-29" value="" style="edgeStyle=none;orthogonalLoop=1;jettySize=auto;html=1;rounded=0;exitX=1;exitY=0.5;exitDx=0;exitDy=0;entryX=0;entryY=0;entryDx=0;entryDy=0;" edge="1" parent="1" source="xaHcEthnXSobxIa-HRYK-16" target="xaHcEthnXSobxIa-HRYK-2">
          <mxGeometry width="100" relative="1" as="geometry">
            <mxPoint x="160" y="250" as="sourcePoint" />
            <mxPoint x="260" y="250" as="targetPoint" />
            <Array as="points" />
          </mxGeometry>
        </mxCell>
        <mxCell id="xaHcEthnXSobxIa-HRYK-30" value="&lt;font style=&quot;font-size: 16px;&quot;&gt;開機資料&lt;/font&gt;" style="text;html=1;align=center;verticalAlign=middle;resizable=0;points=[];autosize=1;strokeColor=none;fillColor=none;" vertex="1" parent="1">
          <mxGeometry x="280" y="240" width="90" height="30" as="geometry" />
        </mxCell>
      </root>
    </mxGraphModel>
  </diagram>
</mxfile>
